<svg width="249" height="48" viewBox="0 0 249 48" fill="none" xmlns="http://www.w3.org/2000/svg">
<path d="M28.6818 47L14.4091 28.1818H12.6364V47H0V0.454544H12.6364V18H14.2727L27.6364 0.454544H43.5455L25.8182 22.8182L44.5455 47H28.6818ZM59.9375 31L69.6648 12.0909H81.483V47H69.6648V28L59.9375 47H48.1193V12.0909H59.9375V31ZM112.778 24.7273V34.0909H95.233V24.7273H112.778ZM99.6875 12.0909V47H87.8693V12.0909H99.6875ZM120.142 12.0909V47H108.415V12.0909H120.142ZM142.938 47.6364C139.15 47.6364 135.907 46.8864 133.21 45.3864C130.513 43.8712 128.445 41.7652 127.006 39.0682C125.566 36.3561 124.847 33.2121 124.847 29.6364C124.847 26.0606 125.566 22.9242 127.006 20.2273C128.445 17.5152 130.513 15.4091 133.21 13.9091C135.907 12.3939 139.15 11.6364 142.938 11.6364C146.725 11.6364 149.968 12.3939 152.665 13.9091C155.362 15.4091 157.43 17.5152 158.869 20.2273C160.309 22.9242 161.028 26.0606 161.028 29.6364C161.028 33.2121 160.309 36.3561 158.869 39.0682C157.43 41.7652 155.362 43.8712 152.665 45.3864C149.968 46.8864 146.725 47.6364 142.938 47.6364ZM143.028 38.3636C144.089 38.3636 145.006 38.0076 145.778 37.2955C146.551 36.5833 147.15 35.5682 147.574 34.25C147.998 32.9318 148.21 31.3636 148.21 29.5455C148.21 27.7121 147.998 26.1439 147.574 24.8409C147.15 23.5227 146.551 22.5076 145.778 21.7955C145.006 21.0833 144.089 20.7273 143.028 20.7273C141.907 20.7273 140.945 21.0833 140.142 21.7955C139.339 22.5076 138.725 23.5227 138.301 24.8409C137.877 26.1439 137.665 27.7121 137.665 29.5455C137.665 31.3636 137.877 32.9318 138.301 34.25C138.725 35.5682 139.339 36.5833 140.142 37.2955C140.945 38.0076 141.907 38.3636 143.028 38.3636Z" fill="white"/>
<path d="M164.665 10.6364V0.454544H205.119V10.6364H191.119V47H178.665V10.6364H164.665ZM209.875 47V0.454544H230.057C233.602 0.454544 236.58 0.931817 238.989 1.88636C241.413 2.84091 243.239 4.18939 244.466 5.93182C245.708 7.67424 246.33 9.72727 246.33 12.0909C246.33 13.803 245.951 15.3636 245.193 16.7727C244.451 18.1818 243.405 19.3636 242.057 20.3182C240.708 21.2576 239.133 21.9091 237.33 22.2727V22.7273C239.33 22.803 241.148 23.3106 242.784 24.25C244.42 25.1742 245.723 26.4545 246.693 28.0909C247.663 29.7121 248.148 31.6212 248.148 33.8182C248.148 36.3636 247.481 38.6288 246.148 40.6136C244.83 42.5985 242.951 44.1591 240.511 45.2955C238.072 46.4318 235.163 47 231.784 47H209.875ZM222.511 36.9091H228.42C230.542 36.9091 232.133 36.5152 233.193 35.7273C234.254 34.9242 234.784 33.7424 234.784 32.1818C234.784 31.0909 234.534 30.1667 234.034 29.4091C233.534 28.6515 232.822 28.0758 231.898 27.6818C230.989 27.2879 229.89 27.0909 228.602 27.0909H222.511V36.9091ZM222.511 19.2727H227.693C228.799 19.2727 229.777 19.0985 230.625 18.75C231.473 18.4015 232.133 17.9015 232.602 17.25C233.087 16.5833 233.33 15.7727 233.33 14.8182C233.33 13.3788 232.814 12.2803 231.784 11.5227C230.754 10.75 229.451 10.3636 227.875 10.3636H222.511V19.2727Z" fill="#FF710B"/>
</svg>
